<svg width="1000" height="200" viewBox="0 0 1000 200" fill="none" xmlns="http://www.w3.org/2000/svg">
<rect width="1000" height="200" fill="#00061E"/>
<path d="M263.063 138.882V50.2628H252.411V88.364H216.075V50.2628H205.485V138.882H216.075V97.9198H252.411V138.882H263.063ZM313.79 138.882H325.536V137.908C324.806 136.082 324.238 133.952 323.832 131.517C323.426 129.042 323.224 126.709 323.224 124.518V93.9027C323.224 90.2103 322.554 86.9844 321.215 84.2252C319.876 81.4661 318.05 79.1532 315.737 77.2867C313.384 75.4608 310.604 74.1014 307.399 73.2088C304.193 72.2755 300.724 71.8089 296.991 71.8089C292.893 71.8089 289.221 72.3769 285.974 73.5131C282.769 74.6492 280.05 76.1303 277.819 77.9562C275.546 79.8227 273.802 81.9124 272.584 84.2252C271.408 86.5381 270.799 88.8915 270.758 91.2855H282.079C282.079 89.9059 282.404 88.5872 283.053 87.3293C283.743 86.0309 284.696 84.915 285.914 83.9818C287.131 83.0485 288.612 82.2979 290.357 81.7298C292.142 81.1617 294.151 80.8777 296.382 80.8777C298.776 80.8777 300.927 81.182 302.834 81.7907C304.782 82.3993 306.425 83.2514 307.764 84.347C309.103 85.4831 310.138 86.8424 310.868 88.4249C311.598 90.0074 311.964 91.7927 311.964 93.781V98.9545H299.669C295.084 98.9545 290.925 99.4008 287.192 100.293C283.499 101.186 280.334 102.525 277.697 104.311C275.059 106.136 273.01 108.409 271.55 111.127C270.129 113.846 269.419 117.011 269.419 120.622C269.419 123.381 269.947 125.958 271.002 128.352C272.097 130.705 273.639 132.734 275.627 134.438C277.575 136.183 279.949 137.563 282.749 138.577C285.589 139.592 288.754 140.099 292.243 140.099C294.394 140.099 296.423 139.876 298.33 139.429C300.237 138.983 302.043 138.374 303.747 137.603C305.41 136.832 306.932 135.94 308.312 134.925C309.732 133.911 311.01 132.836 312.146 131.7C312.268 133.079 312.45 134.418 312.694 135.717C312.978 136.975 313.343 138.029 313.79 138.882ZM293.887 130.3C291.696 130.3 289.768 130.016 288.105 129.448C286.441 128.88 285.061 128.088 283.966 127.074C282.87 126.1 282.039 124.923 281.47 123.544C280.943 122.164 280.679 120.663 280.679 119.04C280.679 117.336 280.984 115.814 281.592 114.475C282.241 113.136 283.175 111.979 284.392 111.006C286.096 109.626 288.389 108.612 291.27 107.962C294.191 107.273 297.6 106.928 301.495 106.928H311.964V120.257C311.314 121.555 310.422 122.813 309.286 124.031C308.149 125.207 306.81 126.262 305.268 127.196C303.686 128.129 301.941 128.88 300.034 129.448C298.127 130.016 296.078 130.3 293.887 130.3ZM360.195 57.0797H348.874V73.0262H331.589V81.7298H348.874V117.518C348.874 121.576 349.402 125.045 350.457 127.926C351.552 130.766 353.033 133.079 354.9 134.865C356.766 136.69 358.957 138.029 361.473 138.882C364.03 139.693 366.768 140.099 369.69 140.099C371.435 140.099 373.179 140.018 374.924 139.855C376.71 139.693 378.394 139.45 379.976 139.125C381.559 138.841 383.019 138.496 384.358 138.09C385.697 137.644 386.833 137.137 387.767 136.569L386.184 128.595C385.494 128.758 384.602 128.961 383.506 129.204C382.451 129.407 381.315 129.61 380.098 129.813C378.84 130.016 377.562 130.198 376.263 130.361C374.965 130.482 373.707 130.543 372.49 130.543C370.826 130.543 369.244 130.34 367.742 129.935C366.282 129.529 364.983 128.819 363.847 127.804C362.711 126.83 361.818 125.512 361.169 123.848C360.52 122.184 360.195 120.074 360.195 117.518V81.7298H385.271V73.0262H360.195V57.0797ZM440.32 121.413C440.32 122.468 440.117 123.463 439.711 124.396C439.305 125.329 438.717 126.181 437.946 126.952C436.688 128.21 434.943 129.204 432.712 129.935C430.48 130.624 427.863 130.969 424.86 130.969C422.953 130.969 421.026 130.766 419.078 130.361C417.13 129.955 415.365 129.265 413.783 128.291C412.16 127.317 410.8 126.039 409.705 124.457C408.65 122.874 408.041 120.927 407.879 118.614H396.619C396.619 121.413 397.248 124.112 398.506 126.709C399.804 129.306 401.671 131.578 404.105 133.526C406.499 135.514 409.441 137.117 412.931 138.334C416.42 139.511 420.397 140.099 424.86 140.099C428.755 140.099 432.346 139.632 435.633 138.699C438.92 137.766 441.74 136.447 444.093 134.743C446.447 133.039 448.273 130.989 449.571 128.595C450.91 126.201 451.58 123.544 451.58 120.622C451.58 117.904 450.991 115.51 449.814 113.44C448.678 111.371 447.015 109.545 444.824 107.962C442.632 106.421 439.934 105.102 436.729 104.006C433.523 102.87 429.891 101.876 425.834 101.024C422.75 100.415 420.194 99.7863 418.165 99.1371C416.177 98.4878 414.594 97.7575 413.417 96.9459C412.2 96.1344 411.348 95.2214 410.861 94.207C410.374 93.1926 410.131 92.0362 410.131 90.7377C410.131 89.4799 410.435 88.2626 411.044 87.0859C411.652 85.9092 412.565 84.8745 413.783 83.9818C414.959 83.0891 416.44 82.379 418.226 81.8515C420.052 81.324 422.162 81.0603 424.556 81.0603C426.869 81.0603 428.938 81.3849 430.764 82.0341C432.63 82.6833 434.213 83.5354 435.511 84.5904C436.81 85.6454 437.824 86.8627 438.554 88.2423C439.285 89.5813 439.65 90.9609 439.65 92.3811H450.91C450.91 89.5002 450.281 86.8221 449.023 84.347C447.806 81.8312 446.061 79.6401 443.789 77.7736C441.517 75.9071 438.757 74.4463 435.511 73.3914C432.265 72.3364 428.613 71.8089 424.556 71.8089C420.782 71.8089 417.313 72.3161 414.148 73.3305C411.023 74.3449 408.325 75.7245 406.053 77.4693C403.781 79.2141 402.015 81.2632 400.758 83.6166C399.5 85.9295 398.871 88.4249 398.871 91.1029C398.871 93.8216 399.479 96.2156 400.697 98.2849C401.914 100.314 403.639 102.079 405.87 103.58C408.061 105.122 410.699 106.441 413.783 107.536C416.907 108.632 420.356 109.565 424.13 110.336C427.213 110.945 429.79 111.635 431.859 112.406C433.929 113.136 435.592 113.947 436.85 114.84C438.108 115.733 439.001 116.727 439.528 117.822C440.056 118.877 440.32 120.074 440.32 121.413ZM479.178 131.578C479.178 133.931 479.908 135.94 481.369 137.603C482.87 139.226 485.082 140.038 488.003 140.038C490.884 140.038 493.096 139.226 494.638 137.603C496.179 135.98 496.95 133.972 496.95 131.578C496.95 129.143 496.179 127.094 494.638 125.431C493.136 123.726 490.925 122.874 488.003 122.874C485.041 122.874 482.83 123.726 481.369 125.431C479.908 127.135 479.178 129.184 479.178 131.578ZM571.901 99.7457V90.19H535.017V59.8794H578.049V50.2628H523.636V138.882H535.017V99.7457H571.901ZM587.388 73.0262V82.8254H609.786V129.143H587.388V138.882H642.531V129.143H621.046V73.0262H587.388ZM608.325 55.7406C608.325 57.5666 608.873 59.0882 609.968 60.3055C611.105 61.5228 612.809 62.1314 615.081 62.1314C617.313 62.1314 618.997 61.5228 620.133 60.3055C621.269 59.0882 621.837 57.5666 621.837 55.7406C621.837 54.7262 621.675 53.793 621.35 52.9409C621.026 52.0888 620.539 51.3787 619.889 50.8106C619.362 50.2831 618.692 49.8774 617.881 49.5933C617.069 49.2687 616.136 49.1064 615.081 49.1064C614.026 49.1064 613.073 49.2687 612.22 49.5933C611.409 49.8774 610.739 50.2831 610.212 50.8106C609.563 51.4193 609.076 52.1496 608.751 53.0017C608.467 53.8538 608.325 54.7668 608.325 55.7406ZM648.644 138.882H659.904V91.6507C660.675 90.2305 661.568 88.9321 662.582 87.7554C663.637 86.5787 664.773 85.544 665.991 84.6513C667.492 83.6369 669.135 82.8456 670.921 82.2776C672.706 81.6689 674.633 81.3646 676.703 81.3646C679.097 81.3646 681.207 81.6486 683.033 82.2167C684.899 82.7848 686.482 83.6978 687.78 84.9556C689.038 86.2135 689.992 87.8568 690.641 89.8856C691.29 91.9145 691.615 94.3896 691.615 97.3111V138.882H702.875V97.0677C702.875 92.6854 702.327 88.9118 701.231 85.7469C700.176 82.5413 698.655 79.9039 696.666 77.8345C694.678 75.7651 692.264 74.2435 689.423 73.2696C686.624 72.2958 683.499 71.8089 680.05 71.8089C677.494 71.8495 675.059 72.2349 672.747 72.9653C670.474 73.6551 668.364 74.6492 666.417 75.9477C665.118 76.7998 663.881 77.8142 662.704 78.9909C661.568 80.127 660.513 81.3849 659.539 82.7645L658.748 73.0262H648.644V138.882ZM754.94 138.882H766.687V137.908C765.957 136.082 765.389 133.952 764.983 131.517C764.577 129.042 764.374 126.709 764.374 124.518V93.9027C764.374 90.2103 763.705 86.9844 762.366 84.2252C761.027 81.4661 759.201 79.1532 756.888 77.2867C754.535 75.4608 751.755 74.1014 748.55 73.2088C745.344 72.2755 741.875 71.8089 738.142 71.8089C734.044 71.8089 730.372 72.3769 727.125 73.5131C723.92 74.6492 721.201 76.1303 718.97 77.9562C716.697 79.8227 714.952 81.9124 713.735 84.2252C712.558 86.5381 711.95 88.8915 711.909 91.2855H723.23C723.23 89.9059 723.555 88.5872 724.204 87.3293C724.894 86.0309 725.847 84.915 727.065 83.9818C728.282 83.0485 729.763 82.2979 731.508 81.7298C733.293 81.1617 735.302 80.8777 737.533 80.8777C739.927 80.8777 742.078 81.182 743.985 81.7907C745.933 82.3993 747.576 83.2514 748.915 84.347C750.254 85.4831 751.289 86.8424 752.019 88.4249C752.749 90.0074 753.115 91.7927 753.115 93.781V98.9545H740.82C736.235 98.9545 732.076 99.4008 728.343 100.293C724.65 101.186 721.485 102.525 718.848 104.311C716.21 106.136 714.161 108.409 712.701 111.127C711.28 113.846 710.57 117.011 710.57 120.622C710.57 123.381 711.098 125.958 712.153 128.352C713.248 130.705 714.79 132.734 716.778 134.438C718.726 136.183 721.1 137.563 723.9 138.577C726.74 139.592 729.905 140.099 733.394 140.099C735.545 140.099 737.574 139.876 739.481 139.429C741.388 138.983 743.194 138.374 744.898 137.603C746.561 136.832 748.083 135.94 749.463 134.925C750.883 133.911 752.161 132.836 753.297 131.7C753.419 133.079 753.601 134.418 753.845 135.717C754.129 136.975 754.494 138.029 754.94 138.882ZM735.038 130.3C732.847 130.3 730.919 130.016 729.256 129.448C727.592 128.88 726.212 128.088 725.117 127.074C724.021 126.1 723.189 124.923 722.621 123.544C722.094 122.164 721.83 120.663 721.83 119.04C721.83 117.336 722.135 115.814 722.743 114.475C723.392 113.136 724.326 111.979 725.543 111.006C727.247 109.626 729.54 108.612 732.421 107.962C735.342 107.273 738.751 106.928 742.646 106.928H753.115V120.257C752.465 121.555 751.573 122.813 750.437 124.031C749.3 125.207 747.961 126.262 746.419 127.196C744.837 128.129 743.092 128.88 741.185 129.448C739.278 130.016 737.229 130.3 735.038 130.3ZM774.687 138.882H785.947V91.6507C786.718 90.2305 787.611 88.9321 788.625 87.7554C789.68 86.5787 790.817 85.544 792.034 84.6513C793.535 83.6369 795.178 82.8456 796.964 82.2776C798.749 81.6689 800.677 81.3646 802.746 81.3646C805.14 81.3646 807.25 81.6486 809.076 82.2167C810.942 82.7848 812.525 83.6978 813.823 84.9556C815.081 86.2135 816.035 87.8568 816.684 89.8856C817.333 91.9145 817.658 94.3896 817.658 97.3111V138.882H828.918V97.0677C828.918 92.6854 828.37 88.9118 827.274 85.7469C826.219 82.5413 824.698 79.9039 822.71 77.8345C820.721 75.7651 818.307 74.2435 815.467 73.2696C812.667 72.2958 809.543 71.8089 806.094 71.8089C803.537 71.8495 801.103 72.2349 798.79 72.9653C796.517 73.6551 794.408 74.6492 792.46 75.9477C791.161 76.7998 789.924 77.8142 788.747 78.9909C787.611 80.127 786.556 81.3849 785.582 82.7645L784.791 73.0262H774.687V138.882ZM865.768 130.969C862.237 130.969 859.275 130.279 856.881 128.9C854.528 127.48 852.641 125.633 851.221 123.361C849.76 121.129 848.705 118.614 848.056 115.814C847.447 112.974 847.143 110.113 847.143 107.232V104.676C847.143 101.835 847.447 99.0153 848.056 96.2156C848.705 93.4158 849.76 90.8798 851.221 88.6075C852.682 86.3758 854.589 84.5701 856.942 83.1905C859.336 81.7704 862.278 81.0603 865.768 81.0603C868.04 81.0603 870.15 81.4458 872.097 82.2167C874.086 82.9877 875.79 84.0426 877.21 85.3817C878.63 86.7207 879.746 88.2829 880.558 90.0682C881.41 91.813 881.856 93.6795 881.897 95.6678H892.548C892.548 92.3405 891.878 89.2161 890.539 86.2946C889.2 83.3731 887.354 80.8371 885.001 78.6866C882.607 76.5766 879.766 74.913 876.48 73.6957C873.234 72.4378 869.663 71.8089 865.768 71.8089C860.777 71.8089 856.415 72.7016 852.682 74.4869C848.949 76.2723 845.845 78.6663 843.369 81.6689C840.854 84.7122 838.967 88.222 837.709 92.1985C836.451 96.175 835.822 100.334 835.822 104.676V107.232C835.822 111.614 836.451 115.794 837.709 119.77C838.967 123.706 840.854 127.175 843.369 130.178C845.845 133.221 848.949 135.635 852.682 137.421C856.415 139.206 860.777 140.099 865.768 140.099C869.257 140.099 872.605 139.511 875.81 138.334C879.016 137.117 881.856 135.493 884.331 133.465C886.806 131.476 888.774 129.164 890.235 126.526C891.736 123.848 892.507 121.048 892.548 118.127H881.897C881.856 119.953 881.369 121.657 880.436 123.239C879.543 124.781 878.346 126.12 876.845 127.256C875.344 128.433 873.619 129.346 871.671 129.995C869.764 130.645 867.796 130.969 865.768 130.969ZM929.824 140.099C936.235 140.099 941.611 138.821 945.953 136.264C950.335 133.668 953.622 130.705 955.813 127.378L948.935 122.022C946.866 124.7 944.269 126.851 941.145 128.474C938.02 130.097 934.449 130.908 930.432 130.908C927.389 130.908 924.61 130.34 922.094 129.204C919.578 128.068 917.428 126.506 915.642 124.518C913.898 122.651 912.518 120.501 911.504 118.066C910.53 115.631 909.901 112.811 909.617 109.606V109.18H956.665V104.128C956.665 99.5428 956.077 95.2823 954.9 91.3464C953.764 87.4105 952.019 83.9818 949.666 81.0603C947.312 78.1794 944.35 75.9274 940.779 74.3043C937.249 72.6407 933.11 71.8089 928.363 71.8089C924.589 71.8089 920.897 72.5798 917.286 74.1217C913.715 75.6636 910.53 77.875 907.73 80.756C904.89 83.6775 902.617 87.2482 900.913 91.4681C899.209 95.6475 898.357 100.395 898.357 105.71V108.267C898.357 112.852 899.128 117.092 900.67 120.987C902.212 124.883 904.362 128.251 907.121 131.091C909.88 133.931 913.187 136.143 917.042 137.725C920.938 139.308 925.198 140.099 929.824 140.099ZM928.363 81.0603C931.244 81.0603 933.719 81.5878 935.788 82.6428C937.898 83.6978 939.643 85.0773 941.023 86.7816C942.402 88.4858 943.478 90.5146 944.249 92.868C945.02 95.1809 945.405 97.3517 945.405 99.3805V99.9283H909.982C910.428 96.8851 911.199 94.207 912.295 91.8942C913.431 89.5407 914.81 87.5525 916.434 85.9295C918.057 84.347 919.883 83.15 921.911 82.3384C923.94 81.4863 926.091 81.0603 928.363 81.0603Z" fill="white"/>
<g clip-path="url(#clip0_7_85980)">
<path d="M74.8531 97.5443H53.991V118.406H74.8531V97.5443Z" fill="white" stroke="#010101" stroke-width="1.24161" stroke-miterlimit="10"/>
<path d="M144.944 97.5443H124.082V118.406H144.944V97.5443Z" fill="white" stroke="#010101" stroke-width="1.24161" stroke-miterlimit="10"/>
<path d="M121.582 97.5443H100.719V118.406H121.582V97.5443Z" fill="white" stroke="#010101" stroke-width="1.24161" stroke-miterlimit="10"/>
<path d="M98.2161 97.5443H77.354V118.406H98.2161V97.5443Z" fill="white" stroke="#010101" stroke-width="1.24161" stroke-miterlimit="10"/>
<path d="M74.8531 120.909H53.991V141.772H74.8531V120.909Z" fill="white" stroke="#010101" stroke-width="1.24161" stroke-miterlimit="10"/>
<path d="M144.944 120.909H124.082V141.772H144.944V120.909Z" fill="white" stroke="#010101" stroke-width="1.24161" stroke-miterlimit="10"/>
<path d="M168.31 120.909H147.448V141.772H168.31V120.909Z" fill="white" stroke="#010101" stroke-width="1.24161" stroke-miterlimit="10"/>
<path d="M51.4881 120.909H30.626V141.772H51.4881V120.909Z" fill="white" stroke="#010101" stroke-width="1.24161" stroke-miterlimit="10"/>
<path d="M121.582 120.909H100.719V141.772H121.582V120.909Z" fill="white" stroke="#010101" stroke-width="1.24161" stroke-miterlimit="10"/>
<path d="M98.2161 120.909H77.354V141.772H98.2161V120.909Z" fill="white" stroke="#010101" stroke-width="1.24161" stroke-miterlimit="10"/>
<path d="M74.8531 74.1339H53.991V94.996H74.8531V74.1339Z" fill="white" stroke="#010101" stroke-width="1.24161" stroke-miterlimit="10"/>
<path d="M74.8531 50.7684H53.991V71.6305H74.8531V50.7684Z" fill="white" stroke="#010101" stroke-width="1.24161" stroke-miterlimit="10"/>
<path d="M144.944 74.0837H124.082V94.9458H144.944V74.0837Z" fill="white" stroke="#010101" stroke-width="1.24161" stroke-miterlimit="10"/>
<path d="M144.944 50.816H124.082V71.6781H144.944V50.816Z" fill="white" stroke="#010101" stroke-width="1.24161" stroke-miterlimit="10"/>
<path d="M121.582 74.0837H100.719V94.9458H121.582V74.0837Z" fill="white" stroke="#010101" stroke-width="1.24161" stroke-miterlimit="10"/>
<path d="M121.579 71.6781V51.577L101.703 71.6781H121.579Z" fill="white" stroke="#010101" stroke-width="1.24161" stroke-miterlimit="10"/>
<path d="M98.2161 74.1788H77.354V95.0409H98.2161V74.1788Z" fill="white" stroke="#010101" stroke-width="1.24161" stroke-miterlimit="10"/>
<path d="M77.4419 71.6781V51.577L97.3628 71.6781H77.4419Z" fill="white" stroke="#010101" stroke-width="1.24161" stroke-miterlimit="10"/>
<path d="M98.2165 97.5443H88.0408V118.406H98.2165V97.5443Z" fill="#010101"/>
<path d="M121.58 97.3188H111.404V118.629H121.58V97.3188Z" fill="#010101"/>
</g>
<defs>
<clipPath id="clip0_7_85980">
<rect width="138.933" height="92.34" fill="white" transform="translate(30 50.0551)"/>
</clipPath>
</defs>
</svg>
