<svg width="301" height="379" xmlns="http://www.w3.org/2000/svg">
  <defs>
    <style type="text/css">
      @import url(https://fonts.googleapis.com/css?family=DM+Sans);
    </style>
    <radialGradient
      cx="8%"
      cy="50%"
      fx="8%"
      fy="50%"
      r="90.6%"
      gradientTransform="matrix(0 .55164 -1 0 .6 .5)"
      id="b"
    >
      <stop stop-color="#376AFF" offset="0%" />
      <stop stop-color="#438BFF" stop-opacity="0" offset="100%" />
    </radialGradient>
    <linearGradient x1="50%" y1="0%" x2="50%" y2="90%" id="a">
      <stop stop-color="#FFF" stop-opacity="0" offset="0%" />
      <stop stop-color="#FFF" offset="80%" />
      <stop stop-color="#FFF" stop-opacity="0" offset="100%" />
    </linearGradient>
  </defs>
  <g transform="translate(.5 .5)" fill="none" fill-rule="evenodd">
    <path
      d="M103 0a25 25 0 0 1 17.7 7.3l24 24.1c8.1 8 19 12.6 30.5 12.6h95.2A30 30 0 0 1 300 69.4V348a30 30 0 0 1-30 30H30a30 30 0 0 1-30-30V30A30 30 0 0 1 30 0h73Z"
      fill="#000"
      fill-rule="nonzero"
    />
    <path
      d="M19.9 150 1.1 163H16l16.8-13h.5l-16.7 13h14.9l14.7-13h.5l-14.6 13H47l12.6-13h.5l-12.5 13h14.9L73 150h.5l-10.4 13H78l8.4-13h.5l-8.3 13h14.9l6.3-13h.5l-6.2 13H109l4.2-13h.5l-4.1 13h14.9l2.1-13h.5l-2 13H140v-13h.5v13h15l-2-13h.4l2.2 13H171l-4.2-13h.5l4.3 13h14.9l-6.3-13h.5l6.4 13H202l-8.4-13h.5l8.5 13h14.9L207 150h.5l10.5 13h15l-12.6-13h.5l12.6 13h15l-14.7-13h.5l14.7 13h15l-16.8-13h.5l16.8 13h15l-18.9-13h.5l19 13h14.8L274 150h.5l21 13h4.5v.3h-4l4 2.4v.3l-4.5-2.8h-15l14 9.7h5.5v.3h-5l5 3.4v.4l-5.6-3.8h-16.5l12.5 9.6h9.6v.3h-9.2l9.2 7v.7l-9.9-7.7h-18l10.9 9.6h17v.4h-16.6l11.3 9.9h-.9l-11.2-10H263l9.7 10h-.9l-9.6-10h-19.6l8 10h-.8l-8-10h-19.6l6.5 10h-.9l-6.4-10h-19.6l4.9 10h-.9l-4.8-10h-19.6l3.3 10h-.9l-3.2-10H161l1.7 10h-.9l-1.5-10h-19.6v10h-.9v-10h-19.5l-1.6 10h-.9l1.7-10H99.9l-3.2 10h-.9l3.3-10H79.5l-4.8 10h-.9l5-10H59l-6.4 10h-.9l6.5-10H38.7l-8 10h-.9l8.1-10H18.3l-9.6 10h-.8l9.7-10H0v-.3h17.9l9.4-9.6H9.2L0 191.3v-.7l8.5-7.5H0v-.3h8.9l10.9-9.6H3.3L0 175.7v-.5l2.6-2H0v-.3h3l12.6-9.7H.6l-.6.5v-.8h.5L19.4 150h.5Zm138.8 33.1h-18v9.6h19.5l-1.5-9.6Zm-18.8 0h-18l-1.6 9.6H140v-9.6Zm-93.9 0H28l-9.3 9.6h19.5l7.8-9.6Zm18.8 0h-18l-7.8 9.6h19.5l6.3-9.6Zm18.8 0h-18l-6.3 9.6H79l4.7-9.6Zm18.8 0H84.3l-4.6 9.6h19.5l3.2-9.6Zm18.7 0h-18l-3.1 9.6h19.5l1.6-9.6Zm56.3 0h-18l1.6 9.6h19.5l-3-9.6Zm18.8 0h-18l3.1 9.6H201l-4.7-9.6Zm18.8 0h-18l4.7 9.6h19.5l-6.2-9.6Zm18.8 0h-18l6.2 9.6h19.5l-7.7-9.6Zm18.7 0h-18l7.8 9.6H262l-9.4-9.6Zm18.8 0h-18l9.3 9.6h19.6l-10.9-9.6Zm6-10h-16.6l11 9.7h18l-12.5-9.6Zm-17.2 0h-16.5l9.3 9.7h18l-10.8-9.6Zm-17.2 0h-16.5l7.8 9.7h18l-9.3-9.6Zm-17.2 0h-16.5l6.3 9.7h18l-7.8-9.6Zm-17.1 0H192l4.7 9.7h18l-6.2-9.6Zm-17.2 0H175l3.2 9.7h18l-4.7-9.6Zm-17.1 0h-16.5l1.5 9.7h18l-3-9.6Zm-17.2 0h-16.5v9.7h18l-1.5-9.6Zm-17.2 0h-16.5l-1.5 9.7h18v-9.6Zm-17.1 0h-16.5l-3.1 9.7h18l1.6-9.6Zm-17.2 0H89.1l-4.6 9.7h18l3.1-9.6Zm-17.2 0H72l-6.2 9.7h18l4.7-9.6Zm-17.1 0H54.8l-7.8 9.7h18l6.3-9.6Zm-17.2 0H37.6l-9.3 9.7h18l7.8-9.6Zm-17.1 0H20.5l-11 9.7h18l9.5-9.6Zm243-9.8h-15l12.5 9.6h16.4l-14-9.7Zm-15.6 0h-15l11 9.6h16.4l-12.4-9.7Zm-15.6 0h-15l9.4 9.6h16.5l-10.9-9.7Zm-15.5 0h-15l7.8 9.6h16.5l-9.3-9.7Zm-15.6 0h-15l6.3 9.6h16.5l-7.8-9.7Zm-15.5 0h-15l4.7 9.6h16.5l-6.2-9.7Zm-15.6 0h-15l3.2 9.6h16.5l-4.7-9.7Zm-15.5 0h-15l1.6 9.6h16.5l-3.1-9.7Zm-15.6 0h-15v9.6H157l-1.5-9.7Zm-15.5 0h-15l-1.5 9.6h16.4v-9.7Zm-15.6 0h-15l-3 9.6h16.4l1.6-9.7Zm-15.5 0h-15l-4.6 9.6h16.4l3.2-9.7Zm-15.6 0h-15l-6.1 9.6h16.4l4.7-9.7Zm-15.5 0h-15l-7.8 9.6h16.5l6.3-9.7Zm-15.6 0h-15l-9.3 9.6h16.5l7.8-9.7Zm-15.5 0h-15l-10.9 9.6h16.5l9.4-9.7Zm-15.6 0h-15l-12.4 9.6h16.5l10.9-9.7ZM287.9 150l12.1 6.7v.4l-12.6-7.1h.5ZM6.5 150 0 154v-.3l6-3.7h.5Z"
      fill="url(#a)"
      opacity=".3"
    />
    <rect
      stroke="#2C2C2C"
      fill="#000"
      fill-rule="nonzero"
      x="18"
      y="208.5"
      width="264"
      height="99"
      rx="14"
    />
    <path
      d="M254 135.7a16.3 16.3 0 1 0-32.6 0 16.3 16.3 0 0 0 32.6 0Zm-24 9V139l-.2-.1h-2.2c-.1 0-.2 0-.2-.2v-2h2.4l.2-.1v-2H227.6c-.1 0-.2 0-.2-.2v-1.8c0-.1 0-.2.2-.2h2.2c.1 0 .2 0 .2-.2V127c0-.2 0-.2.2-.2h7.6l1.6.1a10 10 0 0 1 5 2.6l1.1 1.4.8 1.5c0 .2.2.2.3.2h1.8c.3 0 .3 0 .3.3v1.6c0 .2 0 .2-.3.2H247l-.1.2v1.9c0 .1 0 .2.2.2h1.6v1.8c0 .2 0 .3-.2.3h-2l-.3.1a8.1 8.1 0 0 1-3.2 4l-.2.2-1 .5a11 11 0 0 1-4.8 1h-7Zm14-12.2v-.1a4 4 0 0 0-.4-.7l-.7-1-.5-.4a7.3 7.3 0 0 0-4.8-1.7h-5.4c-.2 0-.2 0-.2.2v3.6c0 .1 0 .2.2.2H244Zm-5.7 4.4h6.2c.1 0 .2 0 .2-.2v-2h-12.5l-.2.1v2h6.3Zm5.2 2h.5v.3a6.6 6.6 0 0 1-2.8 2.8 7.7 7.7 0 0 1-3 .8l-.8.1h-5.2c-.2 0-.2 0-.2-.2v-3.5c0-.2 0-.2.2-.2h11.3Z"
      fill="#E3A94D"
    />
    <path
      d="M53.1 26.6c2.5 0 4.4 1.9 4.4 4.7 0 3-2 4.8-4.4 4.8a3.6 3.6 0 0 1-2.8-1.3h-.1v4.5h-1.9V26.8h1.9v1.1a3.8 3.8 0 0 1 3-1.3Zm16.4 0c2.6 0 4.7 2 4.7 4.7v.7h-7.5c.3 1.5 1.4 2.4 2.8 2.4 1 0 1.6-.3 2-.6l.6-.7h2a4.9 4.9 0 0 1-4.6 3c-2.6 0-4.7-2-4.7-4.8 0-2.6 2-4.7 4.7-4.7Zm29.6 0c1 0 1.7.3 2.2.7l.7.6h.1v-1.1h1.9v9.1h-1.9v-1.2l-.8.7c-.5.4-1.2.7-2.2.7-2.4 0-4.3-1.9-4.3-4.8 0-2.8 2-4.7 4.3-4.7Zm-34.7 0v1.9h-1.1c-1.5 0-2.5 1-2.5 2.5v5h-2v-9.2h2V28l.6-.7c.4-.4 1-.7 2-.7h1Zm22 0c2 0 3.4 1.3 3.4 3.8V36h-1.9v-5.4c0-1.5-.7-2.2-2-2.2-1.2 0-2.3 1-2.3 2.6v5h-1.9v-5.4c0-1.5-.7-2.2-2-2.2-1.2 0-2.3 1-2.3 2.6v5h-1.9v-9.1h1.9V28l.7-.7c.4-.4 1-.7 2-.7 1.3 0 2 .4 2.4.8l.7.9.7-.9c.5-.4 1.3-.8 2.5-.8Zm7.1.2v9.1h-1.9v-9.1h1.9Zm-40.7 1.5c-1.5 0-2.6 1-2.6 3s1 3.1 2.6 3.1 2.7-1 2.7-3-1-3.1-2.7-3.1Zm46.7 0c-1.6 0-2.7 1-2.7 3s1 3.1 2.7 3.1c1.5 0 2.6-1 2.6-3s-1-3.1-2.6-3.1Zm-30 0c-1.3 0-2.4.8-2.7 2.1h5.4c-.2-1-1-2.1-2.7-2.1Zm23-5.1c.7 0 1.2.5 1.2 1.1 0 .6-.5 1.1-1.1 1.1-.7 0-1.2-.5-1.2-1.1 0-.6.5-1.1 1.2-1.1Z"
      fill="#FFF"
    />
    <path
      d="M29.6 26.7h7.8c.5 0 .7.5.5.9l-3.7 5c-.3.5 0 1 .4 1H38c.2 0 .3-.1.4-.3l3.7-5v-.7l-3.2-4.4a.5.5 0 0 0-.5-.2h-9.5c-.2 0-.4 0-.5.2l-3.2 4.4v.7l8 11c.2.3.7.3.9 0l1.6-2.3c.2-.1.2-.4 0-.6l-6.4-8.8c-.3-.4 0-.9.4-.9Z"
      fill="#5294FF"
    />
    <path
      d="m62.4 122 2.7-1.6L68 122l7.5 4.4 2.8 1.6v15l-2.8 1.6L68 149l-2.8 1.6-2.8-1.6-7.6-4.4-2.7-1.6v-15l2.7-1.6 7.6-4.4Zm-4.8 9.1v8.8l7.5 4.3 7.6-4.3V131l-7.6-4.3-7.5 4.3Z"
      fill="#3159CC"
    />
    <path stroke="#4D4343" d="m150 148.5 6.5-26" />
    <path
      d="M139.5 36c8 8 19.7 14.6 31 14.6h95.6c14.5 0 26.3 7.6 28.4 21.3v271.7c0 16-12.9 28.9-28.7 28.9H34.2c-15.8 0-28.7-13-28.7-28.9V33.4A28 28 0 0 1 34.2 5.5h67c6.3 0 12.4 3.5 16.9 8l21.4 22.6Z"
      stroke="#FFF"
      opacity=".1"
    />
    <rect
      stroke="#2CE49A"
      fill="#051A12"
      fill-rule="nonzero"
      x="18"
      y="319.5"
      width="264"
      height="39"
      rx="14"
    />
    <path
      d="m111.6 332.2 5.2 5a.7.7 0 0 1 0 1.2l-.5.4c-.2.2-.3.2-.6.2-.2 0-.4 0-.5-.2l-3-3v9.4c0 .5-.4.8-.8.8h-.7c-.5 0-.8-.3-.8-.8v-9.4l-3 3c-.2.2-.4.2-.6.2-.3 0-.5 0-.6-.2l-.5-.4a.7.7 0 0 1 0-1.1l5.2-5 .6-.3c.2 0 .4 0 .6.2Z"
      fill="#2CE49A"
      fill-rule="nonzero"
    />
    <rect
      fill="#0C1E3C"
      fill-rule="nonzero"
      x="208"
      y="222"
      width="57"
      height="23"
      rx="6"
    />
    <text
      fill-rule="nonzero"
      font-family="DMSans-Medium, DM Sans"
      font-size="14"
      font-weight="400"
      fill="#5294FF"
    >
      <tspan x="221.1" y="238.5">Long</tspan>
    </text>
    <text
      fill-rule="nonzero"
      font-family="DMSans-Medium, DM Sans"
      font-size="14"
      font-weight="400"
      fill="#2CE49A"
    >
      <tspan x="121" y="344">Call Option</tspan>
    </text>
    <text
      font-family="DMSans-Bold, DM Sans"
      font-size="24"
      font-weight="bold"
      fill="#FFF"
    >
      <tspan x="85.6" y="144">LINK</tspan>
    </text>
    <text
      font-family="DMSans-Bold, DM Sans"
      font-size="24"
      font-weight="bold"
      fill="#FFF"
    >
      <tspan x="173.1" y="144">DAI</tspan>
    </text>
    <text
      font-family="DMSans-Medium, DM Sans"
      font-size="14"
      font-weight="400"
      fill="gray"
    >
      <tspan x="32.1" y="237">Type</tspan>
    </text>
    <text
      font-family="DMSans-Medium, DM Sans"
      font-size="14"
      font-weight="400"
      fill="#FFF"
    >
      <tspan x="221" y="263">15,002</tspan>
    </text>
    <text
      font-family="DMSans-Medium, DM Sans"
      font-size="14"
      font-weight="400"
      fill="#FFF"
    >
      <tspan x="197" y="289">15.02.2021</tspan>
    </text>
    <text
      font-family="DMSans-Medium, DM Sans"
      font-size="14"
      font-weight="400"
      fill="gray"
    >
      <tspan x="32.1" y="263">Strike price</tspan>
    </text>
    <path
      d="M125 259a7 7 0 1 0-14 0 7 7 0 0 0 14 0Zm-10.3 3.9v-2.4l-.1-.1h-1v-.9h1v-.9h-1v-.9h1v-2.5H118.8a4.3 4.3 0 0 1 2.2 1l.5.7.3.6.1.1h.9V258.5h-.7v1h.7v.8h-.9l-.1.2a3.5 3.5 0 0 1-1.4 1.7h-.1l-.4.3a4.7 4.7 0 0 1-2.1.4h-3Zm6-5.3c0-.1 0-.2-.2-.3 0-.2-.2-.3-.3-.4l-.2-.2a3.1 3.1 0 0 0-2-.8h-2.4V257.6h5.1Zm-2.4 1.9h2.7v-.9h-5.4v.9h2.7Zm2.2.9h.2c-.3.6-.7 1-1.2 1.3l-.4.2-1 .2h-2.5V260.3h4.9Z"
      fill="#646464"
    />
    <text
      font-family="DMSans-Medium, DM Sans"
      font-size="14"
      font-weight="400"
      fill="gray"
    >
      <tspan x="32.1" y="289">Maturity</tspan>
    </text>
    <path
      d="M10.7 66A104 104 0 1 1 0 273.6V66.6c3.5-.4 7.1-.5 10.7-.5Z"
      fill="url(#b)"
      opacity=".3"
    />
  </g>
</svg>
