<svg xmlns="http://www.w3.org/2000/svg" viewBox="0 0 215.26 44.79"><g id="Layer_2" data-name="Layer 2"><g id="Layer_1-2" data-name="Layer 1"><path d="M61.71,10.11h5.2v3.22h.25a11,11,0,0,1,2-1.83,10,10,0,0,1,5.9-1.88C81.77,9.62,87,14.82,87,22.74s-5.2,13.13-11.88,13.13A10.05,10.05,0,0,1,69.19,34a9.65,9.65,0,0,1-2-1.88h-.25V44.79h-5.2ZM74.1,31.17c4.5,0,7.43-2.93,7.43-8.43s-2.93-8.42-7.43-8.42c-4.21,0-7.19,2.93-7.19,8.42S69.89,31.17,74.1,31.17Z"/><path d="M90.85,10.11h5.21v3.72h.24a7.49,7.49,0,0,1,1.59-2,7.84,7.84,0,0,1,5.35-2h3v5H103a6.62,6.62,0,0,0-6.93,6.93V35.37H90.85Z"/><path d="M120.1,9.62A12.88,12.88,0,0,1,133,22.74v1.74H112.42a7.74,7.74,0,0,0,7.68,6.69,8.58,8.58,0,0,0,5.55-1.74,7.63,7.63,0,0,0,1.63-1.73h5.45a13,13,0,0,1-12.63,8.17,12.88,12.88,0,0,1-12.88-13.13A12.88,12.88,0,0,1,120.1,9.62Zm7.43,10.65a7.15,7.15,0,0,0-7.43-5.95,7.4,7.4,0,0,0-7.43,5.95Z"/><path d="M136.74,10.11h5.2v3.47h.25a7.91,7.91,0,0,1,1.69-2,8.58,8.58,0,0,1,5.74-2A9,9,0,0,1,156.11,12a7.43,7.43,0,0,1,1.68,2.32H158A7.74,7.74,0,0,1,160,12a9.88,9.88,0,0,1,6.74-2.38c5.75,0,9.41,3.66,9.41,10.65v15.1h-5.2V20.52c0-4.21-1.93-6.2-5.45-6.2s-6.44,3-6.44,7.19V35.37h-5.2V20.52c0-4.21-1.93-6.2-5.45-6.2s-6.44,3-6.44,7.19V35.37h-5.2Z"/><path d="M183.7.21a3.1,3.1,0,0,1,3.12,3.12A3.06,3.06,0,0,1,183.7,6.4a3,3,0,0,1-3.07-3.07A3.06,3.06,0,0,1,183.7.21Zm-2.57,9.9h5.2V35.37h-5.2Z"/><path d="M201.89,9.62a10.17,10.17,0,0,1,5.9,1.88,11,11,0,0,1,2,1.83h.24V10.11h5.2V35.37h-5.2V31.91h-.24a10.06,10.06,0,0,1-2,2,9.84,9.84,0,0,1-5.9,2c-6.69,0-11.89-5.2-11.89-13.13S195.2,9.62,201.89,9.62Zm1,21.55c4.21,0,7.18-2.93,7.18-8.43s-3-8.42-7.18-8.42c-4.51,0-7.43,2.93-7.43,8.42S198.37,31.17,202.88,31.17Z"/><path d="M12.61,10.11H33.75a1.47,1.47,0,0,1,1.19,2.34L24.88,26.28a1.47,1.47,0,0,0,1.19,2.34h8.87a1.44,1.44,0,0,0,1.18-.6l10-13.69a1.49,1.49,0,0,0,0-1.73L37.35.61A1.48,1.48,0,0,0,36.16,0h-26A1.45,1.45,0,0,0,9,.61L.28,12.6a1.49,1.49,0,0,0,0,1.73L22,44.18a1.47,1.47,0,0,0,2.38,0l4.43-6.1a1.46,1.46,0,0,0,0-1.73L11.42,12.45A1.47,1.47,0,0,1,12.61,10.11Z"/></g></g></svg>