<svg width="301" height="379" xmlns="http://www.w3.org/2000/svg"><defs><style type="text/css">@import url(https://fonts.googleapis.com/css?family=DM+Sans);</style><radialGradient cx="8.04%" cy="50.9%" fx="8.04%" fy="50.9%" r="89.01%" gradientTransform="matrix(0 .55164 -1 0 .59 .46)" id="c"><stop stop-color="#E2753B" offset="0%"/><stop stop-color="#E2923B" stop-opacity="0" offset="100%"/></radialGradient><radialGradient cx="100%" cy="50%" fx="100%" fy="50%" r="90.64%" gradientTransform="matrix(0 .55164 -1 0 1.5 -.05)" id="d"><stop stop-color="#D1A663" offset="0%"/><stop stop-color="#D8A75B" stop-opacity="0" offset="99.67%"/></radialGradient><linearGradient x1="50%" y1="0%" x2="50%" y2="90%" id="a"><stop stop-color="#FFF" stop-opacity="0" offset="0%"/><stop stop-color="#FFF" offset="80%"/><stop stop-color="#FFF" stop-opacity="0" offset="100%"/></linearGradient><linearGradient x1="62.08%" y1="20.82%" x2="-29.25%" y2="25.67%" id="b"><stop stop-color="#3E1808" offset="3.02%"/><stop stop-color="#300427" offset="100%"/></linearGradient></defs><g transform="translate(.5 .5)" fill="none" fill-rule="evenodd"><path d="M103 0a25 25 0 0 1 17.68 7.32l24.08 24.09A43 43 0 0 0 175.16 44h95.2A30 30 0 0 1 300 69.38V348a30 30 0 0 1-30 30H30a30 30 0 0 1-30-30V30A30 30 0 0 1 30 0h73Z" fill="#000" fill-rule="nonzero"/><rect stroke="#EB4A97" fill="#2D0719" fill-rule="nonzero" x="18" y="319.5" width="264" height="39" rx="14"/><path d="m111.56 345.78 5.21-5.06a.75.75 0 0 0 0-1.08l-.47-.46a.8.8 0 0 0-.56-.23.8.8 0 0 0-.57.23l-3.04 2.95v-9.37a.76.76 0 0 0-.78-.76h-.67c-.43 0-.8.33-.8.76v9.4l-3.07-2.98a.8.8 0 0 0-1.1 0l-.48.46a.75.75 0 0 0 0 1.08l5.21 5.06a.8.8 0 0 0 .56.22.8.8 0 0 0 .56-.22Z" fill="#EB4A97" fill-rule="nonzero"/><text fill-rule="nonzero" font-family="DMSans-Medium, DM Sans" font-size="14" font-weight="400" fill="#EB4A97">
                <tspan x="122.71" y="344">Put Option</tspan>
            </text><path d="M19.9 150 1.08 162.92h14.9L32.78 150h.52l-16.72 12.92h14.9L46.18 150h.52l-14.62 12.92h14.9L59.58 150h.52l-12.53 12.92h14.9L73 150h.52l-10.44 12.92h14.9L86.4 150h.52l-8.34 12.92h14.9L99.8 150h.51l-6.24 12.92h14.9L113.2 150h.51l-4.15 12.92h14.9L126.6 150h.52l-2.06 12.92h14.9L140 150h.52l.04 12.92h14.9L153.41 150h.51l2.14 12.92h14.9L166.81 150h.51l4.23 12.92h14.9L180.22 150h.52l6.32 12.92h14.9L193.61 150h.52l8.42 12.92h14.9L207.02 150h.51l10.52 12.92h14.9L220.42 150h.51l12.62 12.92h14.9L233.82 150h.52l14.7 12.92h14.9L247.23 150h.52l16.8 12.92h14.9L260.63 150h.51l18.9 12.92h14.9L274.03 150h.51l21 12.92H300v.33h-3.93l3.93 2.42v.38l-4.52-2.8h-14.96l14.05 9.6H300v.34h-4.94l4.94 3.38v.46l-5.6-3.84h-16.5l12.49 9.6H300v.34h-9.18l9.18 7.05v.6l-9.9-7.66h-18.06l10.94 9.61H300v.33h-16.64l11.31 9.94h-.85l-11.25-9.94h-19.6l9.7 9.94h-.84l-9.64-9.94h-19.6l8.08 9.94h-.84l-8.03-9.94h-19.6l6.48 9.94h-.85l-6.42-9.94h-19.6l4.87 9.94h-.85l-4.8-9.94h-19.6l3.25 9.94h-.85l-3.19-9.94h-19.6l1.64 9.94h-.84l-1.58-9.94h-19.6l.03 9.94h-.85l.03-9.94h-19.6l-1.58 9.94h-.85l1.64-9.94h-19.6l-3.2 9.94h-.84l3.26-9.94H79.5L74.7 203h-.85l4.86-9.94h-19.6L52.69 203h-.84l6.47-9.94h-19.6L30.7 203h-.85l8.09-9.94h-19.6L8.7 203h-.85l9.7-9.94H0v-.33h17.88l9.37-9.6H9.2L0 191.25v-.68l8.48-7.44H0v-.34h8.86l10.93-9.6H3.3L0 175.73v-.52l2.63-2.02H0v-.34h3.06l12.5-9.6H.6l-.6.41v-.74h.49L19.39 150h.5Zm138.78 33.13h-18.06l.03 9.6h19.55l-1.52-9.6Zm-18.78 0h-18.05l-1.53 9.6h19.55l.03-9.6Zm-93.87 0H27.98l-9.32 9.6H38.2l7.82-9.6Zm18.77 0H46.75l-7.76 9.6h19.55l6.26-9.6Zm18.78 0H65.52l-6.2 9.6h19.55l4.7-9.6Zm18.77 0H84.3l-4.64 9.6H99.2l3.14-9.6Zm18.78 0h-18.06l-3.08 9.6h19.55l1.59-9.6Zm56.32 0H159.4l1.58 9.6h19.56l-3.09-9.6Zm18.77 0h-18.05l3.15 9.6h19.55l-4.65-9.6Zm18.78 0h-18.05l4.7 9.6h19.55l-6.2-9.6Zm18.77 0h-18.05l6.26 9.6h19.55l-7.76-9.6Zm18.78 0H234.5l7.82 9.6h19.55l-9.32-9.6Zm18.77 0h-18.05l9.38 9.6h19.55l-10.88-9.6Zm5.92-9.94h-16.5l10.93 9.6h18l-12.43-9.6Zm-17.17 0h-16.5l9.38 9.6h18l-10.88-9.6Zm-17.16 0h-16.5l7.82 9.6h18l-9.32-9.6Zm-17.16 0h-16.5l6.26 9.6h18l-7.76-9.6Zm-17.17 0h-16.5l4.7 9.6h18l-6.2-9.6Zm-17.16 0h-16.5l3.14 9.6h18l-4.64-9.6Zm-17.16 0h-16.5l1.58 9.6h18l-3.08-9.6Zm-17.17 0h-16.5l.03 9.6h18l-1.53-9.6Zm-17.16 0h-16.5l-1.53 9.6h18l.03-9.6Zm-17.16 0h-16.5l-3.09 9.6h18l1.59-9.6Zm-17.16 0H89.1l-4.65 9.6h18l3.15-9.6Zm-17.17 0h-16.5l-6.2 9.6h18l4.7-9.6Zm-17.16 0h-16.5l-7.76 9.6h18l6.26-9.6Zm-17.16 0h-16.5l-9.32 9.6h18l7.82-9.6Zm-17.17 0h-16.5l-10.87 9.6h18l9.37-9.6Zm242.97-9.94h-14.95l12.5 9.6h16.45l-14-9.6Zm-15.55 0h-14.95l10.94 9.6h16.45l-12.44-9.6Zm-15.55 0h-14.95l9.38 9.6h16.45l-10.88-9.6Zm-15.55 0h-14.95l7.82 9.6h16.45l-9.32-9.6Zm-15.55 0h-14.95l6.26 9.6h16.45l-7.76-9.6Zm-15.55 0H187.2l4.7 9.6h16.46l-6.2-9.6Zm-15.55 0h-14.96l3.15 9.6h16.45l-4.64-9.6Zm-15.55 0H156.1l1.59 9.6h16.45l-3.08-9.6Zm-15.56 0h-14.95l.03 9.6h16.45l-1.53-9.6Zm-15.55 0h-14.95l-1.53 9.6h16.45l.03-9.6Zm-15.55 0h-14.95l-3.09 9.6h16.45l1.6-9.6Zm-15.55 0H93.91l-4.65 9.6h16.45l3.15-9.6Zm-15.55 0H78.36l-6.2 9.6H88.6l4.7-9.6Zm-15.55 0H62.8l-7.76 9.6H71.5l6.26-9.6Zm-15.55 0H47.25l-9.31 9.6h16.45l7.82-9.6Zm-15.56 0H31.7l-10.87 9.6h16.45l9.37-9.6Zm-15.55 0H16.15l-12.43 9.6h16.45l10.93-9.6ZM287.95 150l12.05 6.75v.3L287.43 150h.52ZM6.49 150 0 154.01v-.33L5.98 150h.51Z" fill="url(#a)" opacity=".3"/><rect stroke="#2C2C2C" fill="#000" fill-rule="nonzero" x="18" y="208.5" width="264" height="99" rx="14"/><path d="M125 260a7 7 0 1 0-14 0 7 7 0 0 0 14 0Zm-10.33 3.88v-2.41c0-.06 0-.07-.07-.07h-.95c-.06 0-.08 0-.08-.07v-.83h1.02c.05 0 .08 0 .08-.08v-.82c0-.05 0-.06-.07-.06h-.95c-.06 0-.08 0-.08-.07v-.77c0-.05 0-.06.07-.06h.94c.07 0 .09 0 .09-.09v-2.36c0-.07 0-.08.08-.08h3.28a4.29 4.29 0 0 1 2.85 1.18 3.5 3.5 0 0 1 .8 1.25c.02.06.08.1.14.1h.88l.01.09v.72c0 .07-.03.08-.1.08h-.6c-.06 0-.08 0-.07.08.02.27.02.54 0 .8 0 .08 0 .09.08.09h.7c.01.02 0 .05 0 .07v.73c0 .07-.03.1-.1.1h-.82a.11.11 0 0 0-.13.08 3.5 3.5 0 0 1-1.39 1.71l-.1.06-.42.23a4.71 4.71 0 0 1-2.06.41h-3.04Zm6.04-5.26a.1.1 0 0 0 0-.06c-.05-.1-.1-.19-.16-.27-.1-.15-.2-.29-.32-.41a3.15 3.15 0 0 0-2.26-.94h-2.35c-.07 0-.08.02-.08.08v1.55c0 .07 0 .09.09.09h5.05s.04-.01.05-.04h-.02Zm-2.45 1.88h2.66c.05 0 .08 0 .08-.08.03-.27.03-.54 0-.81 0-.06-.02-.08-.08-.08h-5.3c-.06 0-.08.02-.08.09v.77c0 .05 0 .08.02.1h2.69Zm2.22.9h.23c.03.02 0 .09 0 .09-.27.53-.7.95-1.22 1.23h-.03c-.1.06-.2.1-.32.15-.3.11-.62.18-.95.2-.1.03-.21.04-.32.03h-2.24c-.09 0-.09-.02-.09-.09v-1.52c0-.09.03-.09.1-.09h4.84Z" fill="#646464"/><path d="M258 135.71a16.29 16.29 0 1 0-32.58 0 16.29 16.29 0 0 0 32.58 0Zm-24.05 9.04V139.12c0-.13 0-.15-.16-.15h-2.21c-.12 0-.17 0-.17-.16v-1.94h2.36c.13 0 .18 0 .18-.17v-1.92c0-.12 0-.15-.16-.15h-2.21c-.12 0-.17 0-.17-.16v-1.8c0-.1 0-.13.16-.13h2.19c.15 0 .2 0 .2-.2v-5.49c0-.16 0-.2.2-.2h7.63a9.93 9.93 0 0 1 4.84 1.36 8.99 8.99 0 0 1 2.88 2.74c.32.5.58 1.01.8 1.56.02.14.16.24.3.22h1.82c.23 0 .23 0 .24.22v1.67c0 .16-.06.2-.22.2h-1.4c-.15 0-.19 0-.18.19.06.62.06 1.24 0 1.86 0 .17 0 .2.2.2h1.6c.05.05.04.12.02.18l-.02.09V138.73c0 .17-.05.22-.2.22h-1.93a.26.26 0 0 0-.29.2 8.14 8.14 0 0 1-2.14 3.1c-.34.32-.7.61-1.09.88l-.24.15c-.33.19-.65.37-.98.53a11 11 0 0 1-4.79.95h-7.06Zm14.06-12.25a.2.2 0 0 0 0-.14c-.1-.22-.22-.44-.37-.64a5.15 5.15 0 0 0-.75-.94 7.32 7.32 0 0 0-5.25-2.19h-5.47c-.15 0-.17.06-.17.19v3.61c0 .16 0 .2.19.2h11.75s.1-.02.12-.09h-.05Zm-5.7 4.36h6.19c.13 0 .2 0 .2-.17.05-.63.05-1.26 0-1.9 0-.12-.06-.17-.19-.17h-12.32c-.15 0-.2.05-.2.2v1.8c0 .12 0 .18.04.21.03.03.09.03.21.03h6.07Zm5.18 2.12c.17-.02.35-.02.52 0 .08.04.01.2.01.2a6.62 6.62 0 0 1-2.84 2.85h-.07a7.74 7.74 0 0 1-2.95.84c-.25.05-.5.07-.75.05h-5.2c-.21 0-.21-.04-.21-.2v-3.54c0-.2.05-.2.2-.2h11.3Z" fill="#E3A94D"/><path d="M53.15 26.59c2.43 0 4.31 1.88 4.31 4.76 0 2.87-1.88 4.76-4.31 4.76a3.64 3.64 0 0 1-2.87-1.35h-.1v4.58H48.3V26.77h1.89v1.16h.09a3.78 3.78 0 0 1 2.87-1.34Zm16.33 0c2.6 0 4.67 2.08 4.67 4.76v.63h-7.46c.3 1.52 1.44 2.42 2.79 2.42.93 0 1.6-.28 2.01-.63.23-.18.43-.4.6-.63h1.97a4.8 4.8 0 0 1-.95 1.5 4.86 4.86 0 0 1-3.63 1.47 4.67 4.67 0 0 1-4.67-4.76 4.67 4.67 0 0 1 4.67-4.76Zm29.67 0a3.82 3.82 0 0 1 2.88 1.35h.08v-1.17H104v9.16h-1.89v-1.26h-.09a3.56 3.56 0 0 1-2.88 1.44c-2.42 0-4.3-1.89-4.3-4.76 0-2.88 1.88-4.76 4.3-4.76Zm-34.71.09v1.8h-1.17a2.4 2.4 0 0 0-2.51 2.5v4.95h-1.89v-9.16h1.89v1.34h.09a2.84 2.84 0 0 1 2.52-1.44h1.07Zm21.95-.1c2.08 0 3.41 1.34 3.41 3.87v5.48h-1.89v-5.39c0-1.53-.7-2.25-1.97-2.25-1.24 0-2.34 1.08-2.34 2.6v5.04h-1.89v-5.39c0-1.53-.7-2.25-1.97-2.25-1.24 0-2.34 1.08-2.34 2.6v5.04h-1.88v-9.16h1.88v1.25h.1c.15-.27.35-.5.6-.71a3.11 3.11 0 0 1 2.09-.72c1.17 0 1.9.43 2.35.86.27.25.47.54.61.84h.1a3.58 3.58 0 0 1 3.14-1.7Zm7.11.19v9.16h-1.88v-9.16h1.88ZM52.8 28.29c-1.53 0-2.6 1.06-2.6 3.06s1.07 3.05 2.6 3.05c1.64 0 2.7-1.06 2.7-3.05 0-2-1.06-3.06-2.7-3.06Zm46.72 0c-1.64 0-2.7 1.06-2.7 3.06s1.06 3.05 2.7 3.05c1.52 0 2.6-1.06 2.6-3.05 0-2-1.08-3.06-2.6-3.06Zm-30.03 0c-1.26 0-2.4.8-2.7 2.16h5.4a2.6 2.6 0 0 0-2.7-2.16Zm23.07-5.12c.63 0 1.13.5 1.13 1.13 0 .63-.5 1.12-1.13 1.12a1.1 1.1 0 0 1-1.11-1.12c0-.62.48-1.13 1.11-1.13Z" fill="#FFF"/><path d="M29.65 26.73h7.8c.44 0 .7.5.44.86l-3.72 5.1c-.26.36 0 .87.44.87h3.27c.18 0 .34-.09.44-.23L42 28.3a.54.54 0 0 0 0-.64l-3.22-4.43a.54.54 0 0 0-.43-.22h-9.58a.54.54 0 0 0-.44.22l-3.22 4.43a.54.54 0 0 0 0 .64l8 11c.23.3.67.3.89 0l1.63-2.25a.54.54 0 0 0 0-.63l-6.4-8.82a.54.54 0 0 1 .43-.86Z" fill="#5294FF"/><path d="M52.79 153.08a16.29 16.29 0 1 1 0-32.58 16.29 16.29 0 0 1 0 32.58Zm0-31.31a15.01 15.01 0 1 0 .02 30.02 15.01 15.01 0 0 0-.02-30.02Zm8.55 5.65a12.66 12.66 0 0 0-17.09 0l-.91-.9a13.94 13.94 0 0 1 18.9 0l-.9.9Zm.83.81.9-.9v-.01a13.94 13.94 0 0 1 0 18.9l-.9-.9a12.66 12.66 0 0 0 0-17.09Zm-18.75 17.1a12.66 12.66 0 0 1 0-17.08l-.9-.9a13.94 13.94 0 0 0 0 18.9l.9-.92Zm.82.83a12.67 12.67 0 0 0 17.1 0l.9.9a13.94 13.94 0 0 1-18.9 0l.9-.9Zm14.2-12.35c-.18-1.87-1.8-2.5-3.83-2.69v-2.57h-1.57v2.52h-1.26v-2.52h-1.56v2.59h-3.2v1.68s1.17-.02 1.15 0c.43-.04.83.26.9.7v7.08c-.02.15-.09.29-.2.39a.55.55 0 0 1-.4.13c.02.02-1.15 0-1.15 0l-.3 1.88h3.17v2.63h1.57v-2.59h1.26v2.58h1.58v-2.6c2.66-.16 4.51-.81 4.74-3.3.2-2-.75-2.9-2.26-3.26.92-.45 1.49-1.29 1.36-2.66Zm-2.2 5.6c0 1.8-2.83 1.75-4.12 1.73h-.3v-3.47h.39c1.32-.04 4.02-.1 4.02 1.74Zm-4.16-3.32c1.08.02 3.42.06 3.42-1.58 0-1.67-2.26-1.61-3.37-1.58h-.32v3.16h.27Z" fill="#E2923B"/><path stroke="#4D4343" d="m154 148.5 6.5-26"/><path d="M139.54 36.09c7.91 7.96 19.68 14.48 30.96 14.48h95.64c14.42 0 26.23 7.64 28.36 21.38v271.69a28.78 28.78 0 0 1-28.7 28.86H34.2a28.78 28.78 0 0 1-28.7-28.87V33.38C5.5 17.44 18.33 5.5 34.2 5.5h67.05c6.27 0 12.34 3.48 16.85 8.02l21.44 22.57Z" stroke="#FFF" opacity=".15"/><rect fill="url(#b)" fill-rule="nonzero" x="208" y="222" width="57" height="23" rx="6"/><text fill-rule="nonzero" font-family="DMSans-Medium, DM Sans" font-size="14" font-weight="400" fill="#ED6F64">
                <tspan x="219.13" y="238.5">Short</tspan>
            </text><text font-family="DMSans-Bold, DM Sans" font-size="24" font-weight="bold" fill="#FFF">
                <tspan x="75.63" y="144">WBTC</tspan>
            </text><text font-family="DMSans-Bold, DM Sans" font-size="24" font-weight="bold" fill="#FFF">
                <tspan x="177.13" y="144">DAI</tspan>
            </text><text font-family="DMSans-Medium, DM Sans" font-size="14" font-weight="400" fill="gray">
                <tspan x="32.13" y="237">Type</tspan>
            </text><text font-family="DMSans-Medium, DM Sans" font-size="14" font-weight="400" fill="#FFF">
                <tspan x="221" y="263">15,002</tspan>
            </text><text font-family="DMSans-Medium, DM Sans" font-size="14" font-weight="400" fill="#FFF">
                <tspan x="197" y="289">15.02.2021</tspan>
            </text><text font-family="DMSans-Medium, DM Sans" font-size="14" font-weight="400" fill="gray">
                <tspan x="32.13" y="263">Strike price</tspan>
            </text><text font-family="DMSans-Medium, DM Sans" font-size="14" font-weight="400" fill="gray">
                <tspan x="32.13" y="289">Maturity</tspan>
            </text><path d="M10.74 66.05c57.44 0 104 46.56 104 104s-46.56 104-104 104c-3.63 0-7.21-.18-10.74-.55V66.6c3.53-.36 7.11-.55 10.74-.55Z" fill="url(#c)" opacity=".31"/><path d="M289.26 66.05c-57.44 0-104 46.56-104 104s46.56 104 104 104c3.63 0 7.2-.18 10.74-.55V66.6c-3.53-.36-7.11-.55-10.74-.55Z" fill="url(#d)" opacity=".31"/></g></svg>